PathFileType	4	(X/Y/Z)	/Users/niels/Desktop/University/Third Semester/Perception and Action/Exam/Gymnastics Motion Tracking/Code for Gym Tracking/Analyzed Data/Webcam_Backflip/id4_4_baseline_Sports2D/id4_4_baseline_Sports2D_px_person00.trc
DataRate	CameraRate	NumFrames	NumMarkers	Units	OrigDataRate	OrigDataStartFrame	OrigNumFrames
29.8125	29.8125	8	22	m	29.8125	80	160
Frame#	Time	Hip			RHip			RKnee			RAnkle			RBigToe			RSmallToe			RHeel			LHip			LKnee			LAnkle			LBigToe			LSmallToe			LHeel			Neck			Head			Nose			RShoulder			RElbow			RWrist			LShoulder			LElbow			LWrist		
		X1	Y1	Z1	X2	Y2	Z2	X3	Y3	Z3	X4	Y4	Z4	X5	Y5	Z5	X6	Y6	Z6	X7	Y7	Z7	X8	Y8	Z8	X9	Y9	Z9	X10	Y10	Z10	X11	Y11	Z11	X12	Y12	Z12	X13	Y13	Z13	X14	Y14	Z14	X15	Y15	Z15	X16	Y16	Z16	X17	Y17	Z17	X18	Y18	Z18	X19	Y19	Z19	X20	Y20	Z20	X21	Y21	Z21	X22	Y22	Z22
80	2.683438155136268	0.9256769610696561	-0.47496853333982925	0.0	0.9260830061105431	-0.4728409902772861	0.0	0.9535975729493514	-0.5859410568233338	0.0	0.9054385176690385	-0.6870993333940165	0.0	0.9237110382666333	-0.7328625794776231	0.0	0.9141195542870586	-0.7285572223354728	0.0	0.8925705811540118	-0.6996419945473165	0.0	0.925247139744722	-0.4721800458798092	0.0	0.9459150971764667	-0.5864686068779177	0.0	0.902902717394535	-0.6887418623101115	0.0	0.918190438654735	-0.736792679334943	0.0	0.9168713182385795	-0.7284396160750957	0.0	0.8908536958877221	-0.6985123611275322	0.0	0.9356607713777597	-0.33669069968763476	0.0	0.9566878896858273	-0.25980310840212	0.0	0.9677941698789415	-0.29492851353948746	0.0	0.9323818520931947	-0.3397058717963158	0.0	0.9870928325453131	-0.2874031035828602	0.0	1.0256557222127025	-0.24314483457484928	0.0	0.943977550391953	-0.33852068752215386	0.0	0.9960911201937885	-0.3045450977002035	0.0	1.0448049230323153	-0.27253238624567266	0.0
81	2.716981132075471	0.9297384609179797	-0.4487731654000386	0.0	0.9308038597653842	-0.4464500402977778	0.0	0.9532451305351768	-0.5605171276738545	0.0	0.9096126586557403	-0.6648825766951112	0.0	0.925185492627982	-0.711985578700688	0.0	0.9154702772775221	-0.707225871870566	0.0	0.897792807846809	-0.6770500558419247	0.0	0.9283303001602082	-0.4456694224048227	0.0	0.9454167445747186	-0.5617227333055267	0.0	0.9069565685117165	-0.6668123784327111	0.0	0.919786814794752	-0.7162417520473212	0.0	0.9187271939824746	-0.7075369785940336	0.0	0.896246847612211	-0.6758949679634902	0.0	0.9409117756829695	-0.3109865640983983	0.0	0.9611174938123125	-0.2337139635463804	0.0	0.9725026265554373	-0.26869049714346555	0.0	0.938333621457881	-0.3129959636881511	0.0	0.9899276926512425	-0.25702130555256325	0.0	1.0262557813644047	-0.21285113917682463	0.0	0.9484052119352282	-0.3121992599942775	0.0	1.0001830767254296	-0.27804872821998755	0.0	1.0489893890294233	-0.2465339648862442	0.0
82	2.7505241090146746	0.9334165056545461	-0.42703401792309087	0.0	0.9355627913383707	-0.42449693582472176	0.0	0.9524798361387713	-0.5390549054814352	0.0	0.913722405477132	-0.6458427487035279	0.0	0.9270090505681319	-0.6924542326588103	0.0	0.9174461592479615	-0.6876592252615913	0.0	0.9027926012813378	-0.6579613280296575	0.0	0.9307310496549647	-0.42359483178799745	0.0	0.9448396401638857	-0.5408226634610669	0.0	0.9110587799197412	-0.6478311123021147	0.0	0.9220433773352489	-0.6969828470073196	0.0	0.9206062567837324	-0.6881631802466358	0.0	0.9014979461604511	-0.6565715103866684	0.0	0.9465261714078579	-0.2892785036442558	0.0	0.9668580948858556	-0.2122993409388149	0.0	0.9774019977181406	-0.24718248228141357	0.0	0.9449485574596953	-0.2903107582366308	0.0	0.9931450409932641	-0.23126063790977855	0.0	1.027045020903797	-0.18703022888347337	0.0	0.9523029882317399	-0.29003244219103064	0.0	1.0038604404824367	-0.25409345920987425	0.0	1.0524366599156116	-0.22210903642809054	0.0
83	2.784067085953878	0.9366529315113415	-0.40967852221816264	0.0	0.9401555720408051	-0.40694129341228635	0.0	0.9518327292630265	-0.5217438044098383	0.0	0.9179353559292543	-0.6301502372276546	0.0	0.9300502215467273	-0.6748904392102014	0.0	0.9208585555965818	-0.6705586637842471	0.0	0.9076062701262179	-0.6425601087808481	0.0	0.9325428964936572	-0.4058596100954291	0.0	0.9444283741374991	-0.5238795374147062	0.0	0.9152919959246004	-0.631961012891233	0.0	0.9257510306553189	-0.6796917661914644	0.0	0.923269988844805	-0.670845748200743	0.0	0.9065465653095914	-0.6407498928850359	0.0	0.9522624471217782	-0.271621316299111	0.0	0.9734082253848286	-0.19558355268142366	0.0	0.9824061332733582	-0.23034665777170985	0.0	0.9517900734855649	-0.27179484312796753	0.0	0.9966025081068962	-0.21096600948284933	0.0	1.0282766098006004	-0.16648877562710918	0.0	0.955904643168405	-0.2720960923241837	0.0	1.0069847640375675	-0.2331798051516032	0.0	1.0549624285174937	-0.19998671180820773	0.0
84	2.817610062893081	0.9394729353113844	-0.3963597854370397	0.0	0.9442381657535763	-0.39348556172200577	0.0	0.9517223362045449	-0.5084860474283368	0.0	0.9224453357343662	-0.6178042415509822	0.0	0.9348066488989459	-0.6599339224772717	0.0	0.9260846290366068	-0.6565241176830908	0.0	0.9124139222339716	-0.630747972741123	0.0	0.9341025684884599	-0.39214810254259247	0.0	0.9442942722709874	-0.5107681753708363	0.0	0.919740498478273	-0.6192895935229151	0.0	0.9313510384538922	-0.6649453004042558	0.0	0.9274203136942553	-0.6561501940432888	0.0	0.9114724313926699	-0.6284418551398577	0.0	0.9578925174932326	-0.25794640611801534	0.0	0.9800794553019669	-0.1832680092971584	0.0	0.9874870089795303	-0.21787131485258623	0.0	0.9582415110916332	-0.2574676894652735	0.0	1.0002331639308792	-0.1959451551286303	0.0	1.0300441402181517	-0.1509283687305139	0.0	0.9596597582161893	-0.2583017898721857	0.0	1.0097803034627704	-0.21611515632988504	0.0	1.0569344376474639	-0.18138878383347648	0.0
85	2.8511530398322846	0.9419393268976121	-0.3867304218598109	0.0	0.9475681732731642	-0.38381154062832396	0.0	0.9523861828705584	-0.49898700473309254	0.0	0.9273775096655981	-0.608693721015733	0.0	0.9412777615189123	-0.6481844031379513	0.0	0.9330202009813442	-0.6459534091427643	0.0	0.9174280411552022	-0.6223091318246671	0.0	0.9357370852952323	-0.3821927256129262	0.0	0.9445327638728882	-0.5012643686511412	0.0	0.9244620345610448	-0.6098324981169062	0.0	0.9387524845506293	-0.6532372493975257	0.0	0.9334185037015568	-0.6446232840751629	0.0	0.9164564688208485	-0.6195426780592054	0.0	0.9632314730018321	-0.24815142844143687	0.0	0.986278568196076	-0.17490805239523086	0.0	0.9925921452631314	-0.20932104056013529	0.0	0.9637975652386175	-0.24730976301941004	0.0	1.004131103259428	-0.18541915054844474	0.0	1.032484875203276	-0.13939234718608978	0.0	0.9638644956037045	-0.2485600886899797	0.0	1.0126549775799618	-0.2037715947129315	0.0	1.0590955454768975	-0.16759186559289543	0.0
86	2.884696016771488	0.9441288422443421	-0.38060974007715076	0.0	0.9500832889646161	-0.3777481853225331	0.0	0.953846024288822	-0.4929304876706958	0.0	0.9327390483989006	-0.6026590933022945	0.0	0.9490554290602846	-0.6402343481764393	0.0	0.9411820895918439	-0.6391451148344723	0.0	0.9227836313673616	-0.6169715019952744	0.0	0.9375965400817687	-0.3758744166519384	0.0	0.9452903754020812	-0.4951655194514056	0.0	0.9294985434166223	-0.6035348333395658	0.0	0.9473890283535055	-0.6451134468131672	0.0	0.9411508580217688	-0.6368067367597219	0.0	0.9216737692459631	-0.6138424379669944	0.0	0.9681967972090721	-0.24211490539864852	0.0	0.9916320134350253	-0.17005975579351038	0.0	0.9975963553997966	-0.20424680456967576	0.0	0.9683271026892216	-0.24121278708122318	0.0	1.0084229617790665	-0.17870142226868566	0.0	1.0358500626381015	-0.13105455068802396	0.0	0.9685404128830609	-0.2427715364629238	0.0	1.0159801356535925	-0.19673381261026496	0.0	1.0620934172346377	-0.1594036619010176	0.0
87	2.918238993710691	0.9461194618352142	-0.3779498858527339	0.0	0.9518068181361933	-0.3752478827301168	0.0	0.9559048124764037	-0.49013657696782365	0.0	0.938423352417693	-0.5996008925141519	0.0	0.9576146880467372	-0.6365990709101803	0.0	0.9499318556001104	-0.6363716326076256	0.0	0.9284634738685955	-0.6145418478998	0.0	0.9397434752768	-0.373159258439112	0.0	0.9467473010888882	-0.49237194098639747	0.0	0.9348743996544207	-0.6003230112428235	0.0	0.9565549394710249	-0.6410508648975863	0.0	0.9501702960320573	-0.6330932608725244	0.0	0.9271778692925621	-0.6111323072293798	0.0	0.9728177643911602	-0.23966308427117136	0.0	0.9959507064043849	-0.16833727350897656	0.0	1.0023447800559535	-0.2022830948728901	0.0	0.9720703361048368	-0.23894437699040683	0.0	1.0131670926415197	-0.17547360700819334	0.0	1.040383076935941	-0.12577674640701336	0.0	0.973548253395632	-0.24073817500839603	0.0	1.0199892144038243	-0.19514042218208374	0.0	1.0661937986735877	-0.15691434750556793	0.0
